<?xml version="1.0" encoding="utf-8"?>
<!-- Generator: Adobe Illustrator 18.1.1, SVG Export Plug-In . SVG Version: 6.00 Build 0)  -->
<svg version="1.1" id="Layer_1" xmlns="http://www.w3.org/2000/svg" xmlns:xlink="http://www.w3.org/1999/xlink" x="0px" y="0px"
	 viewBox="0 0 721.7 179.9" enable-background="new 0 0 721.7 179.9" xml:space="preserve">
<g>
	<g>
		<path d="M106.8,0.7c-14.9,0-26.6,6.1-33.4,16.7C66.6,6.8,55,0.7,40,0.7C15.7,0.7,0,16.8,0,41.8v134.7h13.3V41.8
			c0-17.7,9.8-27.9,26.8-27.9c17,0,26.8,10.2,26.8,27.9v134.7H80V41.8c0-17.7,9.8-27.9,26.8-27.9c17,0,26.8,10.2,26.8,27.9v134.7
			h13.3V41.8C146.8,16.8,131.1,0.7,106.8,0.7z"/>
		<path d="M199.6,0.7c-24.3,0-40,16.1-40,41.1v134.7h13.3V61.6h53.5v114.8h13.3V41.8C239.6,16.8,223.9,0.7,199.6,0.7z M172.8,48.4
			v-6.6c0-17.7,9.8-27.9,26.8-27.9c17,0,26.8,10.2,26.8,27.9v6.6H172.8z"/>
		<path d="M681.7,0.7c-24.3,0-40,16.1-40,41.1v134.7h13.3V61.6h53.5v114.8h13.3V41.8C721.7,16.8,706,0.7,681.7,0.7z M654.9,48.4
			v-6.6c0-17.7,9.8-27.9,26.8-27.9c17,0,26.8,10.2,26.8,27.9v6.6H654.9z"/>
		<polygon points="319.8,3 241.9,3 241.9,16.2 274.2,16.2 274.2,176.5 287.5,176.5 287.5,16.2 319.8,16.2 		"/>
		<g>
			<path d="M492.3,4v134.7c0,17.7-9.8,27.9-26.8,27.9c-17,0-26.8-10.2-26.8-27.9V4h-13.3v134.7c0,25,15.7,41.1,40,41.1
				c24.3,0,40-16.1,40-41.1V4H492.3z"/>
		</g>
		<g>
			<path d="M317,47.5c-0.7,19,8.1,33.2,26.2,42.3c4.7,2.4,12.3,4.4,19.7,6.4c5.8,1.6,12.4,3.3,15.2,4.7c16.7,8.3,23.1,22,18.9,40.5
				c0,0.2-6.7,23.3-31.6,23.7c-14.3,0.3-31.4-3.4-36.7-34.4l-13.1,2.3c5.3,30.6,22.2,45.9,50.1,45.4c30-0.6,42.3-25.4,44.3-34.1
				c5.5-24.5-3.8-44.2-26-55.3c-4-2-10.6-3.8-17.7-5.7c-6.4-1.7-13.7-3.7-17.2-5.4C331.5,69.1,330,56.7,330.3,48
				c1.2-31.4,23.4-34.8,32.9-34.8c26,0,36.8,22,36.8,33.8h13.3c0-19.7-17.4-47-50-47C341.8,0,318.4,12.5,317,47.5z"/>
		</g>
		<g>
			<path d="M527,3l-7.9,0l0,6.6v168.2l7.9,0c17.3,0,57.8,0.1,83.4-25.5c14.7-14.7,22.2-35.6,22.2-61.9c0-26.4-7.5-47.2-22.2-61.9
				C584.8,2.9,544.3,3,527,3z M532.3,16.3c18.2,0.1,49,1.9,68.7,21.6c12.2,12.2,18.3,29.8,18.3,52.5c0,22.7-6.2,40.4-18.3,52.5
				c-19.7,19.7-50.5,21.4-68.7,21.6C532.3,152.8,532.3,28,532.3,16.3z"/>
		</g>
	</g>
</g>
<g>
</g>
<g>
</g>
<g>
</g>
<g>
</g>
<g>
</g>
<g>
</g>
</svg>
