<?xml version="1.0" encoding="utf-8"?>
<!-- Generator: Adobe Illustrator 18.1.1, SVG Export Plug-In . SVG Version: 6.00 Build 0)  -->
<svg version="1.1" id="Layer_1" xmlns="http://www.w3.org/2000/svg" xmlns:xlink="http://www.w3.org/1999/xlink" x="0px" y="0px"
	 viewBox="1.1 458.1 609.8 46" enable-background="new 1.1 458.1 609.8 46" xml:space="preserve">
<path d="M50.2,497.6c2.6-2,5.1-4,7.6-6c0.3-0.2,0.6-0.5,0.6-0.8c0.6-3.5,3.4-5.7,4.9-8.6c0.8-1.6,1.9-2,3.8-2.1
	c1.6,4.1,0.7,8.2,0.6,12.6c-2.8,0.2-5.2,0.3-8.1,0.5c1.6,4.7,5.7,1.6,8.4,4c0,1.5-0.1,3.5,0.1,5.4c0,0.5,0.9,0.9,1.3,1.3
	c0.4-0.4,1.1-0.9,1.2-1.4c0.2-1.3,0.1-2.7,0.2-3.9c0-1.8,0.9-2.6,2.7-2.5c1.3,0,2.7,0.1,3.9-0.2c1.5-0.3,2.3-1.1,1.6-2.9
	c-1.7,0-3.3,0.1-5,0c-2.8-0.1-3.2-0.3-3.2-3c-0.1-2.7,0-5.2,0.1-7.9c0-1.2-0.1-2.8,1.5-2.7c0.9,0,2.1,0.9,2.7,1.8
	c2,3.3,4.6,6.2,6.4,9.8c1.2,2.4,4.3,3.9,6.7,5.7c1.3,1,2.1,0.3,2.7-1.1c-0.9-0.9-1.8-1.8-2.7-2.5c-5.1-4.1-9.2-9-12.7-14.4
	c-1.1-1.8-2-3.5-1.2-5.8c0.5-0.1,1.1-0.3,1.6-0.3c4.2-0.1,8.3-0.2,12.5-0.3c1.3,0,2.7,0.3,3.5-1.9c-1.5-0.3-2.8-0.8-4.1-0.8
	c-4.4-0.1-8.8-0.1-13.3-0.1c-3.2,0-3.7-0.5-3.7-3.8c0-1.1,0.1-2.1,0.1-3.2c-0.1-1.1,0.4-2.7-1.3-2.8c-2-0.1-1.6,1.7-1.6,2.9
	c-0.1,1.1,0,2.1,0,3.2c-0.1,3.3-0.2,3.5-3.4,3.5c-4.5,0.1-9.1,0.1-13.6,0.1c-0.7,0-1.5-0.1-2.1,0.1c-0.4,0.2-0.8,0.8-0.9,1.3
	c-0.1,0.3,0.5,0.8,0.8,0.9c0.8,0.2,1.6,0.2,2.5,0.3c3.3,0,6.7,0,10,0.1c1.1,0,2.3,0.3,3.2,0.4c1,2.8-0.1,4.9-1.4,6.8
	c-4.1,5.9-8.5,11.6-14.2,16c-0.3,0.2-0.3,0.6-0.6,0.9C49,496.8,49.6,497.3,50.2,497.6z"/>
<path d="M35.1,496.3c0-10.7,0-21.5,0-32.2c0-1.2-0.1-2.4-0.2-3.9c-0.9-0.2-1.4-0.4-1.8-0.4c-9.6-0.1-19.2-0.3-28.9-0.4
	c-2.5,0-3,0.6-3,3.2c-0.1,3.7-0.1,7.4-0.1,11.1c0,7.8,0.1,15.5,0.1,23.3c0,1.2-0.3,2.8,1.3,3c0.8,0.1,2.1-0.6,2.6-1.4
	c0.8-1.3,2-1.3,3.2-1.3c6.5,0.1,13.1,0.1,19.6,0.1c1.5,0,2.9,0.1,3.5,1.9c0.2,0.5,1.5,1,2.1,0.9c0.6-0.1,1.1-1.1,1.5-1.8
	C35.3,497.9,35.1,497.1,35.1,496.3z M31,493.5c-1.8,0.2-3.7,0.6-5.4,0.6c-5.4,0-10.9-0.1-16.2-0.1c-3.7-0.1-3.9-0.2-3.9-4
	c0-2.6,0-5.2,0-7.8c0-1.5,0.6-2.3,2.2-2.3c7.6,0,15.2,0,23.4,0C31,484.4,31,488.6,31,493.5z M31.3,476.1c-8.7,0-17,0-25.6,0
	c0-4.1,0-8.2,0-12.6c1.1-0.2,1.9-0.4,2.7-0.4c6.4-0.1,12.8-0.1,19.1,0c3.1,0.1,3.7,0.6,3.7,3.7C31.4,469.7,31.3,472.8,31.3,476.1z"
	/>
<g>
	<path fill="#010101" d="M126.1,458.9h4.7l15,21.9l15-21.9h4.7v40.1h-4.7v-32.5l-15,21.5h-0.3l-15-21.4v32.4H126v-40.1H126.1z"/>
	<path fill="#010101" d="M192.4,458.6h4.4l18.8,40.4h-5l-4.8-10.6h-22.4l-4.9,10.6h-4.8L192.4,458.6z M203.9,484.3l-9.3-20.4
		l-9.4,20.4H203.9z"/>
	<path fill="#010101" d="M223.6,458.9h14.3c3.2,0,6.2,0.5,8.8,1.5c2.7,1,5,2.4,6.9,4.2c2,1.8,3.4,3.9,4.5,6.3
		c1.1,2.4,1.6,5.1,1.6,7.9v0.1c0,2.8-0.5,5.4-1.6,7.9s-2.5,4.5-4.5,6.3c-2,1.8-4.2,3.2-6.9,4.2c-2.7,1-5.6,1.5-8.8,1.5h-14.3V458.9z
		 M237.9,494.7c2.6,0,4.9-0.4,7.1-1.2c2.1-0.8,3.9-1.9,5.4-3.3c1.5-1.4,2.6-3.1,3.4-5c0.8-2,1.2-4,1.2-6.2v-0.1
		c0-2.2-0.4-4.3-1.2-6.2c-0.8-1.9-2-3.6-3.4-5.1c-1.5-1.5-3.3-2.6-5.4-3.3c-2.1-0.8-4.5-1.2-7.1-1.2h-9.7v31.7L237.9,494.7
		L237.9,494.7z"/>
	<path fill="#010101" d="M269.6,458.9h29.8v4h-25.1v13.8h22.5v4h-22.5v14.1h25.4v4h-30.1L269.6,458.9L269.6,458.9z"/>
	<path fill="#010101" d="M327.1,458.9h4.7v40.1h-4.7V458.9z"/>
	<path fill="#010101" d="M343.8,458.9h4.4l26,32.1v-32.1h4.5v40.1h-3.7l-26.6-32.8v32.8h-4.5V458.9z"/>
</g>
<g>
	<path fill="#010101" d="M417.7,500.7c-3.1,0-5.7-0.7-7.8-2.1c-2.1-1.4-3.7-3.2-5.1-5.3l3.4-2.9c1.3,2,2.6,3.4,4,4.4
		c1.5,1,3.3,1.5,5.4,1.5c2.3,0,4.3-0.8,5.8-2.5c1.6-1.7,2.3-4.2,2.3-7.5v-27.9h4.7v27.9c0,2.5-0.3,4.6-1,6.4s-1.6,3.3-2.8,4.5
		C424.5,499.5,421.5,500.7,417.7,500.7z"/>
	<path fill="#010101" d="M457.3,458.1h4.4l19,41.9h-5.1l-4.9-11h-22.7l-4.9,11h-4.8L457.3,458.1z M468.9,484.8l-9.5-21.2l-9.5,21.2
		H468.9z"/>
	<path fill="#010101" d="M488.9,458.4h15.6c2.3,0,4.5,0.3,6.4,0.9c1.9,0.6,3.5,1.5,4.9,2.6c1.4,1.1,2.4,2.5,3.2,4.1
		c0.7,1.6,1.1,3.5,1.1,5.6v0.1c0,2.3-0.4,4.2-1.3,5.9c-0.9,1.7-2.1,3.1-3.5,4.2c-1.5,1.1-3.2,2-5.2,2.6c-2,0.6-4.1,0.9-6.3,0.9
		h-10.1v14.7h-4.7L488.9,458.4L488.9,458.4z M503.9,481.2c1.7,0,3.3-0.2,4.7-0.6c1.5-0.4,2.7-1.1,3.7-1.9c1-0.8,1.8-1.8,2.3-2.9
		c0.5-1.1,0.8-2.3,0.8-3.8v-0.1c0-3-1-5.2-3.1-6.8s-4.7-2.3-8.1-2.3h-10.5v18.4L503.9,481.2L503.9,481.2z"/>
	<path fill="#010101" d="M544,458.1h4.4l19,41.9h-5.1l-4.9-11h-22.7l-4.9,11h-4.8L544,458.1z M555.7,484.8l-9.5-21.2l-9.5,21.2
		H555.7z"/>
	<path fill="#010101" d="M575.6,458.4h4.4l26.3,33.4v-33.4h4.6V500h-3.7l-26.9-34.2V500h-4.6L575.6,458.4L575.6,458.4z"/>
</g>
</svg>
