<?xml version="1.0" encoding="utf-8"?>
<!-- Generator: Adobe Illustrator 18.1.1, SVG Export Plug-In . SVG Version: 6.00 Build 0)  -->
<svg version="1.1" id="Layer_1" xmlns="http://www.w3.org/2000/svg" xmlns:xlink="http://www.w3.org/1999/xlink" x="0px" y="0px"
	 viewBox="0 0 174.4 61.6" enable-background="new 0 0 174.4 61.6" xml:space="preserve">
<g>
	<g>
		<g>
			<path fill="#D1D3D4" d="M25.8,0.2c-3.6,0-6.4,1.5-8.1,4c-1.6-2.5-4.5-4-8.1-4C3.8,0.2,0,4.1,0,10.1v32.5h3.2V10.1
				c0-4.3,2.4-6.7,6.5-6.7s6.5,2.5,6.5,6.7v32.5h3.2V10.1c0-4.3,2.4-6.7,6.5-6.7s6.5,2.5,6.5,6.7v32.5h3.2V10.1
				C35.5,4.1,31.7,0.2,25.8,0.2z"/>
			<path fill="#D1D3D4" d="M48.2,0.2c-5.9,0-9.7,3.9-9.7,9.9v32.5h3.2V14.9h12.9v27.7h3.2V10.1C57.9,4.1,54.1,0.2,48.2,0.2z
				 M41.8,11.7v-1.6c0-4.3,2.4-6.7,6.5-6.7s6.5,2.5,6.5,6.7v1.6H41.8z"/>
			<path fill="#D1D3D4" d="M164.7,0.2c-5.9,0-9.7,3.9-9.7,9.9v32.5h3.2V14.9h12.9v27.7h3.2V10.1C174.4,4.1,170.6,0.2,164.7,0.2z
				 M158.2,11.7v-1.6c0-4.3,2.4-6.7,6.5-6.7s6.5,2.5,6.5,6.7v1.6H158.2z"/>
			<polygon fill="#D1D3D4" points="77.3,0.7 58.5,0.7 58.5,3.9 66.3,3.9 66.3,42.6 69.5,42.6 69.5,3.9 77.3,3.9 			"/>
			<g>
				<path fill="#D1D3D4" d="M118.9,1v32.5c0,4.3-2.4,6.7-6.5,6.7c-4.1,0-6.5-2.5-6.5-6.7V1h-3.2v32.5c0,6,3.8,9.9,9.7,9.9
					c5.9,0,9.7-3.9,9.7-9.9V1H118.9z"/>
			</g>
			<g>
				<path fill="#D1D3D4" d="M76.6,11.5c-0.2,4.6,1.9,8,6.3,10.2c1.1,0.6,3,1.1,4.8,1.5c1.4,0.4,3,0.8,3.7,1.1c4,2,5.6,5.3,4.6,9.8
					c0,0.1-1.6,5.6-7.6,5.7c-3.5,0.1-7.6-0.8-8.9-8.3l-3.2,0.5c1.3,7.4,5.4,11.1,12.1,11c7.3-0.1,10.2-6.1,10.7-8.2
					c1.3-5.9-0.9-10.7-6.3-13.3c-1-0.5-2.6-0.9-4.3-1.4c-1.5-0.4-3.3-0.9-4.2-1.3c-4.3-2.1-4.6-5.1-4.6-7.2c0.3-7.6,5.7-8.4,7.9-8.4
					c6.3,0,8.9,5.3,8.9,8.2h3.2C99.9,6.6,95.7,0,87.8,0C82.6,0,76.9,3,76.6,11.5z"/>
			</g>
			<g>
				<path fill="#D1D3D4" d="M127.3,0.7h-1.9v1.6v40.6h1.9c4.2,0,14,0,20.1-6.1c3.5-3.5,5.4-8.6,5.4-15s-1.8-11.4-5.4-15
					C141.3,0.7,131.5,0.7,127.3,0.7z M128.6,3.9c4.4,0,11.8,0.5,16.6,5.2c2.9,2.9,4.4,7.2,4.4,12.7s-1.5,9.7-4.4,12.7
					c-4.8,4.7-12.2,5.2-16.6,5.2C128.6,36.9,128.6,6.8,128.6,3.9z"/>
			</g>
		</g>
	</g>
	<path fill="#D1D3D4" d="M14.2,59.7c0.7-0.6,1.5-1.1,2.2-1.7c0.1-0.1,0.2-0.1,0.2-0.2c0.2-1,1-1.6,1.4-2.5c0.2-0.5,0.5-0.6,1.1-0.6
		c0.5,1.2,0.2,2.3,0.2,3.6c-0.8,0.1-1.5,0.1-2.3,0.1c0.5,1.4,1.6,0.5,2.4,1.2c0,0.4,0,1,0,1.5c0,0.1,0.3,0.3,0.4,0.4
		c0.1-0.1,0.3-0.3,0.3-0.4c0.1-0.4,0-0.8,0.1-1.1c0-0.5,0.3-0.7,0.8-0.7c0.4,0,0.8,0,1.1-0.1c0.4-0.1,0.6-0.3,0.5-0.8
		c-0.5,0-1,0-1.4,0c-0.8,0-0.9-0.1-0.9-0.9c0-0.8,0-1.5,0-2.3c0-0.3,0-0.8,0.4-0.8c0.3,0,0.6,0.3,0.8,0.5c0.6,1,1.3,1.8,1.8,2.8
		c0.3,0.7,1.2,1.1,1.9,1.6c0.4,0.3,0.6,0.1,0.8-0.3c-0.3-0.3-0.5-0.5-0.8-0.7c-1.4-1.2-2.6-2.6-3.6-4.1c-0.3-0.5-0.6-1-0.3-1.7
		c0.1,0,0.3-0.1,0.5-0.1c1.2,0,2.4-0.1,3.6-0.1c0.4,0,0.8,0.1,1-0.5c-0.4-0.1-0.8-0.2-1.2-0.2c-1.3,0-2.5,0-3.8,0
		c-0.9,0-1-0.1-1.1-1.1c0-0.3,0-0.6,0-0.9c0-0.3,0.1-0.8-0.4-0.8c-0.6,0-0.5,0.5-0.5,0.8c0,0.3,0,0.6,0,0.9c0,1-0.1,1-1,1
		c-1.3,0-2.6,0-3.9,0c-0.2,0-0.4,0-0.6,0c-0.1,0.1-0.2,0.2-0.3,0.4c0,0.1,0.1,0.2,0.2,0.3c0.2,0.1,0.5,0.1,0.7,0.1c1,0,1.9,0,2.9,0
		c0.3,0,0.6,0.1,0.9,0.1c0.3,0.8,0,1.4-0.4,1.9c-1.2,1.7-2.4,3.3-4.1,4.6c-0.1,0.1-0.1,0.2-0.2,0.3C13.9,59.5,14.1,59.6,14.2,59.7z"
		/>
	<path fill="#D1D3D4" d="M9.9,59.4c0-3.1,0-6.1,0-9.2c0-0.3,0-0.7-0.1-1.1C9.6,49,9.5,49,9.4,49c-2.7,0-5.5-0.1-8.2-0.1
		c-0.7,0-0.8,0.2-0.9,0.9c0,1.1,0,2.1,0,3.2c0,2.2,0,4.4,0,6.6c0,0.3-0.1,0.8,0.4,0.8c0.2,0,0.6-0.2,0.7-0.4
		c0.2-0.4,0.6-0.4,0.9-0.4c1.9,0,3.7,0,5.6,0c0.4,0,0.8,0,1,0.5c0.1,0.1,0.4,0.3,0.6,0.3c0.2,0,0.3-0.3,0.4-0.5
		C10,59.8,9.9,59.6,9.9,59.4z M8.7,58.5c-0.5,0.1-1,0.2-1.5,0.2c-1.5,0-3.1,0-4.6,0c-1.1,0-1.1-0.1-1.1-1.2c0-0.7,0-1.5,0-2.2
		c0-0.4,0.2-0.7,0.6-0.7c2.2,0,4.3,0,6.7,0C8.7,55.9,8.7,57.2,8.7,58.5z M8.8,53.6c-2.5,0-4.8,0-7.3,0c0-1.2,0-2.3,0-3.6
		c0.3-0.1,0.5-0.1,0.8-0.1c1.8,0,3.6,0,5.5,0c0.9,0,1,0.2,1.1,1C8.9,51.7,8.8,52.6,8.8,53.6z"/>
	<g>
		<path fill="#D1D3D4" d="M35.9,48.7h1.3l4.3,6.2l4.3-6.2h1.3v11.4h-1.3v-9.3L41.5,57h-0.1l-4.3-6.1v9.2h-1.3L35.9,48.7L35.9,48.7z"
			/>
		<path fill="#D1D3D4" d="M54.8,48.6H56l5.4,11.5h-1.4l-1.4-3h-6.4l-1.4,3h-1.4L54.8,48.6z M58.1,55.9l-2.7-5.8l-2.7,5.8H58.1z"/>
		<path fill="#D1D3D4" d="M63.7,48.7h4.1c0.9,0,1.8,0.1,2.5,0.4c0.8,0.3,1.4,0.7,2,1.2c0.6,0.5,1,1.1,1.3,1.8s0.5,1.4,0.5,2.3v0
			c0,0.8-0.1,1.5-0.5,2.3c-0.3,0.7-0.7,1.3-1.3,1.8c-0.6,0.5-1.2,0.9-2,1.2c-0.8,0.3-1.6,0.4-2.5,0.4h-4.1V48.7z M67.8,58.9
			c0.7,0,1.4-0.1,2-0.3c0.6-0.2,1.1-0.5,1.5-1c0.4-0.4,0.7-0.9,1-1.4c0.2-0.6,0.3-1.1,0.3-1.8v0c0-0.6-0.1-1.2-0.3-1.8
			c-0.2-0.5-0.6-1-1-1.4c-0.4-0.4-0.9-0.7-1.5-1c-0.6-0.2-1.3-0.3-2-0.3H65v9L67.8,58.9L67.8,58.9z"/>
		<path fill="#D1D3D4" d="M76.8,48.7h8.5v1.2h-7.2v3.9h6.4v1.2h-6.4v4h7.2v1.2h-8.6L76.8,48.7L76.8,48.7z"/>
		<path fill="#D1D3D4" d="M93.2,48.7h1.3v11.4h-1.3V48.7z"/>
		<path fill="#D1D3D4" d="M98,48.7h1.2l7.4,9.2v-9.2h1.3v11.4h-1.1l-7.6-9.4v9.4H98V48.7z"/>
	</g>
	<g>
		<path fill="#D1D3D4" d="M119.1,60.6c-0.9,0-1.6-0.2-2.2-0.6c-0.6-0.4-1.1-0.9-1.4-1.5l1-0.8c0.4,0.6,0.7,1,1.2,1.3
			c0.4,0.3,0.9,0.4,1.5,0.4c0.7,0,1.2-0.2,1.7-0.7c0.5-0.5,0.7-1.2,0.7-2.1v-8h1.3v7.9c0,0.7-0.1,1.3-0.3,1.8
			c-0.2,0.5-0.5,1-0.8,1.3C121,60.3,120.1,60.6,119.1,60.6z"/>
		<path fill="#D1D3D4" d="M130.3,48.5h1.3l5.4,12h-1.4l-1.4-3.1h-6.5l-1.4,3.1h-1.4L130.3,48.5z M133.6,56.1l-2.7-6.1l-2.7,6.1
			H133.6z"/>
		<path fill="#D1D3D4" d="M139.4,48.5h4.5c0.7,0,1.3,0.1,1.8,0.3c0.5,0.2,1,0.4,1.4,0.7c0.4,0.3,0.7,0.7,0.9,1.2
			c0.2,0.5,0.3,1,0.3,1.6v0c0,0.6-0.1,1.2-0.4,1.7c-0.3,0.5-0.6,0.9-1,1.2c-0.4,0.3-0.9,0.6-1.5,0.7c-0.6,0.2-1.2,0.3-1.8,0.3h-2.9
			v4.2h-1.4L139.4,48.5L139.4,48.5z M143.6,55c0.5,0,0.9-0.1,1.3-0.2c0.4-0.1,0.8-0.3,1-0.5c0.3-0.2,0.5-0.5,0.7-0.8
			c0.1-0.3,0.2-0.7,0.2-1.1v0c0-0.8-0.3-1.5-0.9-1.9c-0.6-0.4-1.4-0.6-2.3-0.6h-3V55L143.6,55L143.6,55z"/>
		<path fill="#D1D3D4" d="M155.1,48.5h1.3l5.4,12h-1.4l-1.4-3.1h-6.5l-1.4,3.1h-1.4L155.1,48.5z M158.4,56.1l-2.7-6.1l-2.7,6.1
			H158.4z"/>
		<path fill="#D1D3D4" d="M164.1,48.5h1.3l7.5,9.5v-9.5h1.3v11.9h-1.1l-7.7-9.7v9.7h-1.3L164.1,48.5L164.1,48.5z"/>
	</g>
</g>
<g>
</g>
<g>
</g>
<g>
</g>
<g>
</g>
<g>
</g>
<g>
</g>
</svg>
