<?xml version="1.0" encoding="utf-8"?>
<!-- Generator: Adobe Illustrator 19.1.0, SVG Export Plug-In . SVG Version: 6.00 Build 0)  -->
<svg version="1.1" id="Layer_1" xmlns="http://www.w3.org/2000/svg" xmlns:xlink="http://www.w3.org/1999/xlink" x="0px" y="0px"
	 viewBox="-255 347 100 100" style="enable-background:new -255 347 100 100;" xml:space="preserve">
<g>
	<g>
		<path d="M-211.9,361.5c-7.2,0-14.4,2.7-19.9,8.2c-10.9,10.9-10.9,28.7,0,39.6c10.6,10.5,27.5,10.9,38.5,1.1l21.9,21.9
			c0.3,0.3,0.8,0.3,1.1,0s0.3-0.8,0-1.1l-22-21.9c0,0,0,0,0.1,0c10.9-10.9,11-28.6,0-39.6C-197.6,364.3-204.7,361.5-211.9,361.5
			L-211.9,361.5z M-211.9,363.1c6.8,0,13.6,2.6,18.7,7.7c10.3,10.3,10.3,27,0,37.3s-27.1,10.3-37.4,0s-10.3-27,0-37.3
			C-225.5,365.7-218.7,363.1-211.9,363.1L-211.9,363.1z"/>
		<path d="M-170.8,434c-0.6,0-1.2-0.2-1.6-0.7l-20.9-20.9c-11.6,9.4-28.7,8.6-39.5-2.1c-5.6-5.6-8.6-13-8.6-20.9
			c0-7.9,3.1-15.3,8.6-20.9c5.6-5.6,13-8.6,21-8.6c7.8,0,15.2,3.1,20.8,8.6c11.2,11.2,11.5,29.1,1,40.7l20.9,20.8
			c0.4,0.4,0.7,1,0.7,1.6s-0.2,1.2-0.7,1.6C-169.6,433.8-170.2,434-170.8,434z M-211.9,364.6c-6.7,0-13,2.6-17.6,7.3
			c-9.7,9.7-9.7,25.5,0,35.2c9.3,9.3,24.2,9.7,34,1.2l-0.4-0.4h0.9c0.3-0.2,0.5-0.5,0.8-0.8c9.7-9.7,9.7-25.5,0-35.2
			C-198.9,367.2-205.2,364.6-211.9,364.6z"/>
	</g>
</g>
</svg>
